<svg width="18" height="18" viewBox="0 0 18 18" fill="none" xmlns="http://www.w3.org/2000/svg">
<path d="M4.19066 7.57393L5.09577 8.47809C5.27342 8.65575 5.37323 8.89669 5.37323 9.14793C5.37323 9.39917 5.27342 9.64012 5.09577 9.81777C4.91812 9.99542 4.67717 10.0952 4.42593 10.0952C4.1747 10.0952 3.93375 9.99542 3.7561 9.81777L1.2358 7.29653C0.639341 6.70007 1.0616 5.6804 1.90517 5.6804H7.19381L9.4793 3.3949V1.89333C9.47935 1.64225 9.57914 1.40148 9.7567 1.22397L10.7035 0.2772C10.881 0.099709 11.1218 0 11.3728 0C11.6239 0 11.8647 0.099709 12.0422 0.2772L17.7228 5.9578C17.9003 6.13535 18 6.37612 18 6.62716C18 6.87821 17.9003 7.11898 17.7228 7.29653L16.776 8.2433C16.5985 8.42086 16.3577 8.52065 16.1067 8.5207H14.6051L12.3196 10.8062V16.0948C12.3196 16.9375 11.2999 17.3607 10.7035 16.7642L6.639 12.6997L1.62776 17.711C1.54043 17.8014 1.43596 17.8735 1.32045 17.9231C1.20494 17.9728 1.0807 17.9989 0.954994 18C0.829283 18.0011 0.704613 17.9771 0.588259 17.9295C0.471904 17.8819 0.366196 17.8116 0.277302 17.7227C0.188407 17.6338 0.118107 17.5281 0.0705025 17.4117C0.0228982 17.2954 -0.00105665 17.1707 3.57468e-05 17.045C0.00112814 16.9193 0.0272459 16.7951 0.076865 16.6796C0.126484 16.564 0.198611 16.4596 0.289037 16.3722L5.96964 10.6916C6.14718 10.5141 6.38795 10.4144 6.639 10.4144C6.89005 10.4144 7.13082 10.5141 7.30836 10.6916L10.4261 13.8093V10.4142C10.4261 10.1632 10.5259 9.92238 10.7035 9.74487L13.5438 6.90457C13.7213 6.727 13.9621 6.62722 14.2131 6.62716H15.7147L10.7035 1.61593H12.0422L11.0954 2.5627L11.3728 1.89333V3.78686C11.3728 4.03794 11.273 4.27872 11.0954 4.45623L8.25513 7.29653C8.07762 7.47409 7.83685 7.57388 7.58577 7.57393H4.19066Z" fill="#212121"/>
</svg>
