<svg width="266" height="69" viewBox="0 0 266 69" fill="none" xmlns="http://www.w3.org/2000/svg">
<path d="M259.85 18.2556H251.65V6.08862C251.646 2.72752 248.895 0.00371597 245.5 0H6.15038C2.75519 0.00371597 0.00375366 2.72752 0 6.08862V62.9123C0.00375366 66.2725 2.75519 68.9963 6.15038 69H245.5C248.895 68.9963 251.646 66.2725 251.65 62.9123V50.7258H259.85C263.245 50.7221 265.996 47.9983 266 44.6381V24.3433C265.996 20.9832 263.245 18.2594 259.85 18.2556ZM247.55 62.9123C247.549 64.0327 246.632 64.9403 245.5 64.9412H6.15038C5.01865 64.9403 4.10088 64.0327 4.09994 62.9123V6.08862C4.10088 4.96825 5.01865 4.0597 6.15038 4.05877H245.5C246.632 4.0597 247.549 4.96825 247.55 6.08862V62.9123ZM261.9 44.6372C261.899 45.7575 260.981 46.6652 259.85 46.667H251.65V22.3135H259.85C260.981 22.3144 261.899 23.223 261.9 24.3433V44.6372Z" fill="#3B55E7"/>
<path d="M38.7031 9.87751C38.3437 9.21593 37.6521 8.8049 36.9005 8.8049H10.2504C10.1059 8.80772 9.96323 8.82648 9.82341 8.86027C9.79807 8.8659 9.7718 8.86027 9.74646 8.86684L9.73426 8.87153C9.53625 8.92596 9.34763 9.00948 9.17403 9.11927C9.12054 9.15305 9.07643 9.19341 9.0267 9.23094C8.91221 9.31634 8.80711 9.41299 8.71326 9.52091C8.66728 9.57346 8.62412 9.62789 8.58376 9.68513C8.55373 9.72736 8.51526 9.76021 8.48804 9.80525C8.44488 9.88971 8.40734 9.97698 8.37637 10.0661C8.35197 10.1215 8.32382 10.1722 8.30599 10.2304C8.24124 10.4265 8.20652 10.6311 8.20277 10.8384L8.19995 10.8544V60.0546C8.19995 61.1863 9.11772 62.1041 10.2504 62.1041H63.5505C64.2731 62.105 64.9422 61.724 65.3119 61.1037C65.6817 60.4825 65.6976 59.713 65.3532 59.0777L38.7031 9.87751ZM12.2999 18.9445L33.4574 58.0042H12.2999V18.9445ZM38.1213 58.0042L13.6925 12.9048H35.6786L60.1084 58.0042H38.1213Z" fill="#41D59D"/>
<path d="M38.7031 9.87751C38.3437 9.21593 37.6521 8.8049 36.9005 8.8049H10.2504C10.1059 8.80772 9.96323 8.82648 9.82341 8.86027C9.79807 8.8659 9.7718 8.86027 9.74646 8.86684L9.73426 8.87153C9.53625 8.92596 9.34763 9.00948 9.17403 9.11927C9.12054 9.15305 9.07643 9.19341 9.0267 9.23094C8.91221 9.31634 8.80711 9.41299 8.71326 9.52091C8.66728 9.57346 8.62412 9.62789 8.58376 9.68513C8.55373 9.72736 8.51526 9.76021 8.48804 9.80525C8.44488 9.88971 8.40734 9.97698 8.37637 10.0661C8.35197 10.1215 8.32382 10.1722 8.30599 10.2304C8.24124 10.4265 8.20652 10.6311 8.20277 10.8384L8.19995 10.8544V60.0546C8.19995 61.1863 9.11772 62.1041 10.2504 62.1041H63.5505C64.2731 62.105 64.9422 61.724 65.3119 61.1037C65.6817 60.4825 65.6976 59.713 65.3532 59.0777L38.7031 9.87751ZM12.2999 18.9445L33.4574 58.0042H12.2999V18.9445ZM38.1213 58.0042L13.6925 12.9048H35.6786L60.1084 58.0042H38.1213Z" fill="url(#paint0_linear)"/>
<path d="M237.4 8.8049C236.268 8.8049 235.35 9.72267 235.35 10.8544V12.9048C235.35 14.0366 236.268 14.9543 237.4 14.9543C238.532 14.9543 239.45 14.0366 239.45 12.9048V10.8544C239.45 9.72267 238.532 8.8049 237.4 8.8049Z" fill="#3B55E7"/>
<path d="M237.4 19.0543C236.268 19.0543 235.35 19.972 235.35 21.1047V60.0546C235.35 61.1863 236.268 62.1041 237.4 62.1041C238.532 62.1041 239.45 61.1863 239.45 60.0546V21.1047C239.45 19.972 238.532 19.0543 237.4 19.0543Z" fill="#3B55E7"/>
<defs>
<linearGradient id="paint0_linear" x1="55" y1="35" x2="8" y2="35" gradientUnits="userSpaceOnUse">
<stop stop-color="#41D59D"/>
<stop offset="1" stop-color="#3B55E7"/>
</linearGradient>
</defs>
</svg>
