<svg width="100" height="100" viewBox="0 0 100 100" fill="none" xmlns="http://www.w3.org/2000/svg">
<mask id="mask0" mask-type="alpha" maskUnits="userSpaceOnUse" x="0" y="0" width="100" height="100">
<path d="M100 50C100 77.6142 77.6142 100 50 100C22.3858 100 0 77.6142 0 50C0 22.3858 22.3858 0 50 0C77.6142 0 100 22.3858 100 50Z" fill="#41D59D"/>
</mask>
<g mask="url(#mask0)">
<path d="M100 50C100 77.6142 77.6142 100 50 100C22.3858 100 0 77.6142 0 50C0 22.3858 22.3858 0 50 0C77.6142 0 100 22.3858 100 50Z" fill="#3B55E7"/>
<path d="M28.4278 54.8797C28.5494 54.945 28.6848 54.9796 28.8229 54.9796C28.8632 54.9796 28.9036 54.9769 28.9434 54.9711C29.2987 54.9153 29.5823 54.646 29.6577 54.2945C29.7416 53.9185 29.7953 53.5361 29.8176 53.1511C30.0661 50.4919 30.5903 47.896 33.951 47.896H60.3615C62.9208 47.8934 64.9952 45.8195 64.9984 43.2597V22.6358C64.9952 20.0765 62.9208 18.0027 60.3615 18H21.6363C19.077 18.0032 17.0032 20.077 17 22.6358V43.2592C17.0032 45.8184 19.077 47.8923 21.6363 47.8955H23.1908C23.4314 47.8886 23.6427 48.0527 23.6964 48.2869C24.5562 53.1495 27.7432 54.6174 28.4278 54.8797ZM23.1908 46.2651H21.6363C19.9778 46.263 18.6336 44.9188 18.6315 43.2602V22.6358C18.6336 20.9772 19.9778 19.6336 21.6363 19.6315H60.3615C62.0201 19.6331 63.3648 20.9772 63.3669 22.6358V43.2592C63.3648 44.9183 62.0201 46.2624 60.3615 46.264H33.9504C28.885 46.264 28.3927 50.8695 28.1999 52.9238C27.2615 52.2965 25.8122 50.8881 25.3024 48.0033C25.1138 46.9879 24.2232 46.255 23.1908 46.2651Z" fill="white"/>
<path d="M59.4062 35.0264H49.6158C49.1654 35.0264 48.8 35.3912 48.8 35.8421C48.8 36.2925 49.1654 36.6578 49.6158 36.6578H59.4062C59.8571 36.6578 60.222 36.2925 60.222 35.8421C60.222 35.3912 59.8571 35.0264 59.4062 35.0264Z" fill="white"/>
<path d="M45.8066 35.8421C45.8066 35.3912 45.4413 35.0264 44.9909 35.0264H29.5599C29.1095 35.0264 28.7441 35.3912 28.7441 35.8421C28.7441 36.2925 29.1095 36.6578 29.5599 36.6578H44.9909C45.4413 36.6578 45.8066 36.2925 45.8066 35.8421Z" fill="white"/>
<path d="M22.5919 36.6578H25.9594C26.4098 36.6578 26.7752 36.2925 26.7752 35.8421C26.7752 35.3912 26.4098 35.0264 25.9594 35.0264H22.5919C22.141 35.0264 21.7761 35.3912 21.7761 35.8421C21.7761 36.2925 22.141 36.6578 22.5919 36.6578Z" fill="white"/>
<path d="M56.8499 31.8808H59.406C59.8564 31.8808 60.2217 31.516 60.2217 31.0651C60.2217 30.6147 59.8564 30.2493 59.406 30.2493H56.8499C56.3996 30.2493 56.0342 30.6147 56.0342 31.0651C56.0342 31.516 56.3996 31.8808 56.8499 31.8808Z" fill="white"/>
<path d="M53.2702 31.8808C53.7206 31.8808 54.086 31.516 54.086 31.0651C54.086 30.6147 53.7206 30.2493 53.2702 30.2493H48.9908C48.5404 30.2493 48.175 30.6147 48.175 31.0651C48.175 31.516 48.5404 31.8808 48.9908 31.8808H53.2702Z" fill="white"/>
<path d="M22.5919 31.8808H45.3821C45.8329 31.8808 46.1978 31.516 46.1978 31.0651C46.1978 30.6147 45.8329 30.2493 45.3821 30.2493H22.5919C22.141 30.2493 21.7761 30.6147 21.7761 31.0651C21.7761 31.516 22.141 31.8808 22.5919 31.8808Z" fill="white"/>
<path d="M57.3397 26.15H59.4061C59.8564 26.15 60.2218 25.7846 60.2218 25.3342C60.2218 24.8839 59.8564 24.5185 59.4061 24.5185H57.3397C56.8888 24.5185 56.5239 24.8839 56.5239 25.3342C56.5239 25.7846 56.8888 26.15 57.3397 26.15Z" fill="white"/>
<path d="M44.859 26.15H53.7115C54.1619 26.15 54.5272 25.7846 54.5272 25.3342C54.5272 24.8839 54.1619 24.5185 53.7115 24.5185H44.859C44.4081 24.5185 44.0432 24.8839 44.0432 25.3342C44.0432 25.7846 44.4081 26.15 44.859 26.15Z" fill="white"/>
<path d="M22.5919 26.15H41.2503C41.7006 26.15 42.066 25.7846 42.066 25.3342C42.066 24.8839 41.7006 24.5185 41.2503 24.5185H22.5919C22.141 24.5185 21.7761 24.8839 21.7761 25.3342C21.7761 25.7846 22.141 26.15 22.5919 26.15Z" fill="white"/>
<path d="M49.8606 39.8024H49.4649C49.0146 39.8024 48.6492 40.1678 48.6492 40.6181C48.6492 41.0685 49.0146 41.4338 49.4649 41.4338H49.8606C50.3109 41.4338 50.6763 41.0685 50.6763 40.6181C50.6763 40.1678 50.3109 39.8024 49.8606 39.8024Z" fill="white"/>
<path d="M46.1519 39.8024H39.0779C38.6276 39.8024 38.2622 40.1678 38.2622 40.6181C38.2622 41.0685 38.6276 41.4338 39.0779 41.4338H46.1519C46.6023 41.4338 46.9677 41.0685 46.9677 40.6181C46.9677 40.1678 46.6023 39.8024 46.1519 39.8024Z" fill="white"/>
<path d="M35.3818 40.6181C35.3818 40.1678 35.017 39.8024 34.5661 39.8024H22.5919C22.141 39.8024 21.7761 40.1678 21.7761 40.6181C21.7761 41.0685 22.141 41.4338 22.5919 41.4338H34.5661C35.017 41.4338 35.3818 41.0685 35.3818 40.6181Z" fill="white"/>
<path d="M83.7059 52.6386C83.7064 50.2832 81.8742 48.3342 79.5231 48.1897C77.172 48.0447 75.1146 49.7543 74.8263 52.0921C74.5379 54.4299 76.1178 56.5882 78.4333 57.0194V61.9027C77.7865 61.6611 77.1115 61.5033 76.4243 61.4343V61.4332C76.4211 58.7316 74.2314 56.542 71.5298 56.5388H64.6922V53.9036C64.6911 52.817 63.8106 51.936 62.7235 51.9344H56.9576V49.3687C56.9576 48.9184 56.5922 48.553 56.1418 48.553C55.6909 48.553 55.3261 48.9184 55.3261 49.3687V51.9344H49.6563C48.5697 51.936 47.6892 52.8165 47.6876 53.9031V56.5383H40.8505C38.1489 56.5415 35.9592 58.7311 35.9561 61.4327V77.5488C35.9592 80.2504 38.1489 82.4401 40.8505 82.4433H71.5298C74.2314 82.4401 76.4211 80.2504 76.4243 77.5488V77.5472C79.8322 77.2036 82.6544 74.7522 83.4722 71.426C84.2896 68.0999 82.9252 64.6192 80.0648 62.7349V57.0194C82.1737 56.6238 83.7027 54.7841 83.7059 52.6386ZM49.3196 53.9036C49.3196 53.7177 49.4704 53.5669 49.6568 53.5664H62.7235C62.9099 53.5669 63.0607 53.7177 63.0607 53.9036V56.5388H49.3196V53.9036ZM74.7928 77.5488C74.7907 79.3497 73.3307 80.8097 71.5298 80.8118H40.8505C39.0496 80.8097 37.5897 79.3497 37.5875 77.5488V61.4332C37.5897 59.6324 39.0496 58.1724 40.8505 58.1703H71.5298C73.3307 58.1724 74.7907 59.6324 74.7928 61.4332V77.5488ZM82.0744 69.4908C82.0707 72.7452 79.6522 75.4909 76.4243 75.9057V63.0759C79.6522 63.4906 82.0707 66.2369 82.0744 69.4908ZM76.4243 52.6386C76.4243 51.0783 77.6888 49.8138 79.2491 49.8138C80.8094 49.8138 82.0744 51.0783 82.0744 52.6386C82.0744 54.1989 80.8094 55.4639 79.2491 55.4639C77.6898 55.4623 76.4259 54.1984 76.4243 52.6386Z" fill="white"/>
<path d="M46.1394 65.2161H45.3348C43.8335 65.2182 42.6173 66.4344 42.6157 67.9352V70.2603C42.6157 70.7106 42.9806 71.076 43.4315 71.076H48.0428C48.4937 71.076 48.8586 70.7106 48.8586 70.2603V67.9352C48.857 66.4344 47.6408 65.2182 46.1394 65.2161ZM47.2271 69.4445H44.2472V67.9352C44.2477 67.3351 44.7342 66.8486 45.3348 66.8475H46.1394C46.7401 66.8486 47.2265 67.3351 47.2271 67.9352V69.4445Z" fill="white"/>
<path d="M67.0462 65.2161H66.2416C64.7402 65.2182 63.5241 66.4344 63.5225 67.9352V70.2603C63.5225 70.7106 63.8873 71.076 64.3382 71.076H68.9496C69.4004 71.076 69.7653 70.7106 69.7653 70.2603V67.9352C69.7637 66.4344 68.5475 65.2182 67.0462 65.2161ZM68.1338 69.4445H65.1539V67.9352C65.1545 67.3351 65.6409 66.8486 66.2416 66.8475H67.0462C67.6468 66.8486 68.1333 67.3351 68.1338 67.9352V69.4445Z" fill="white"/>
<path d="M60.8019 73.1254H51.5787C51.1283 73.1254 50.7629 73.4903 50.7629 73.9412V74.7457C50.7661 77.2976 52.8336 79.3656 55.3855 79.3683H56.9952C59.547 79.3656 61.615 77.2976 61.6177 74.7457V73.9412C61.6177 73.4903 61.2528 73.1254 60.8019 73.1254ZM56.9952 77.7368H55.3855C53.7386 77.7352 52.4024 76.4038 52.3944 74.7569H59.9862C59.9788 76.4038 58.642 77.7352 56.9952 77.7368Z" fill="white"/>
</g>
</svg>
