<svg width="22" height="18" viewBox="0 0 22 18" fill="none" xmlns="http://www.w3.org/2000/svg">
<path d="M18 5.83021C17.578 5.6806 17.1947 5.43867 16.8781 5.12208C16.5615 4.80548 16.3196 4.42221 16.17 4.00021H3C2.73478 4.00021 2.48043 3.89485 2.29289 3.70731C2.10536 3.51978 2 3.26542 2 3.00021C2 2.73499 2.10536 2.48064 2.29289 2.2931C2.48043 2.10556 2.73478 2.00021 3 2.00021H16.17C16.339 1.52232 16.6264 1.09504 17.0052 0.758236C17.384 0.421428 17.842 0.186067 18.3364 0.0741105C18.8308 -0.0378457 19.3455 -0.0227484 19.8324 0.117994C20.3194 0.258737 20.7628 0.520538 21.1212 0.878973C21.4797 1.23741 21.7415 1.68079 21.8822 2.16777C22.023 2.65474 22.0381 3.16943 21.9261 3.66381C21.8141 4.1582 21.5788 4.61617 21.242 4.99499C20.9052 5.37382 20.4779 5.66116 20 5.83021V17.0002C20 17.2654 19.8946 17.5198 19.7071 17.7073C19.5196 17.8949 19.2652 18.0002 19 18.0002H1C0.734784 18.0002 0.48043 17.8949 0.292893 17.7073C0.105357 17.5198 0 17.2654 0 17.0002V6.00021C-4.21001e-07 5.8217 0.0477804 5.64645 0.138382 5.49265C0.228984 5.33884 0.359103 5.2121 0.515231 5.12556C0.671359 5.03903 0.847804 4.99586 1.02625 5.00055C1.20469 5.00524 1.37863 5.0576 1.53 5.15221L8.983 9.81021L14.445 6.16821C14.6657 6.02101 14.9358 5.9675 15.1959 6.01945C15.456 6.0714 15.6848 6.22455 15.832 6.44521C15.9792 6.66587 16.0327 6.93596 15.9808 7.19608C15.9288 7.45619 15.7757 7.68501 15.555 7.83221L9.555 11.8322C9.39487 11.939 9.20732 11.9973 9.01486 12.0002C8.8224 12.003 8.63321 11.9502 8.47 11.8482L2 7.80421V16.0002H18V5.83021ZM19 4.00021C19.2652 4.00021 19.5196 3.89485 19.7071 3.70731C19.8946 3.51978 20 3.26542 20 3.00021C20 2.73499 19.8946 2.48064 19.7071 2.2931C19.5196 2.10556 19.2652 2.00021 19 2.00021C18.7348 2.00021 18.4804 2.10556 18.2929 2.2931C18.1054 2.48064 18 2.73499 18 3.00021C18 3.26542 18.1054 3.51978 18.2929 3.70731C18.4804 3.89485 18.7348 4.00021 19 4.00021Z" fill="#212121"/>
</svg>
