<svg width="54" height="27" viewBox="0 0 54 27" fill="none" xmlns="http://www.w3.org/2000/svg">
<path d="M54 3.37504C54 1.51125 52.4889 1.80201e-08 50.625 4.0247e-08L47.1909 8.11982e-08L37.1249 2.01234e-07L3.37493 6.03698e-07C1.51024 6.25934e-07 -0.000110608 1.51035 -0.000110586 3.37504L-0.000110344 23.6251C-0.000110322 25.4898 1.51024 27.0001 3.37493 27.0001L37.125 27.0001L47.191 27.0001L50.625 27.0001C52.4889 27.0001 54 25.489 54 23.6251L54 3.37504Z" fill="#F3F3F3"/>
<path d="M37.1251 13.4976C37.1251 17.2255 40.1471 20.2475 43.875 20.2475C47.6029 20.2475 50.625 17.2255 50.625 13.4976C50.625 9.76967 47.6029 6.7476 43.875 6.7476C40.1471 6.7476 37.1251 9.76967 37.1251 13.4976Z" fill="#00BF08"/>
<path d="M20.2501 13.4976C20.2501 17.2255 23.2721 20.2475 27 20.2475C30.7279 20.2475 33.75 17.2255 33.75 13.4976C33.75 9.76967 30.7279 6.7476 27 6.7476C23.2721 6.7476 20.2501 9.76967 20.2501 13.4976Z" fill="#00BF08"/>
<path d="M3.37504 13.4976C3.37504 17.2255 6.39711 20.2475 10.125 20.2475C13.8529 20.2475 16.875 17.2255 16.875 13.4976C16.875 9.76967 13.8529 6.7476 10.125 6.7476C6.39711 6.7476 3.37504 9.76967 3.37504 13.4976Z" fill="#00BF08"/>
</svg>
