<svg width="18" height="18" viewBox="0 0 18 18" fill="none" xmlns="http://www.w3.org/2000/svg">
<path d="M11.52 7.10688L12.53 8.11688L16.29 9.26588C16.471 9.32099 16.6328 9.42636 16.7563 9.56975C16.8799 9.71314 16.9602 9.88865 16.988 10.0759L17.989 16.8539C18.0099 16.996 18 17.1409 17.96 17.2789C17.9199 17.4168 17.8506 17.5445 17.7567 17.6532C17.6629 17.762 17.5467 17.8492 17.4161 17.909C17.2855 17.9689 17.1436 17.9998 17 17.9999H1.00496C0.861338 18 0.719381 17.9691 0.58875 17.9094C0.45812 17.8497 0.341881 17.7626 0.247943 17.6539C0.154005 17.5453 0.0845728 17.4177 0.04437 17.2798C0.00416715 17.1419 -0.00586265 16.997 0.014963 16.8549L1.01096 10.0769C1.03637 9.90488 1.10617 9.74248 1.21349 9.60569C1.32082 9.46891 1.46195 9.36247 1.62296 9.29688L4.62296 8.07388C4.86733 7.98001 5.13876 7.9857 5.37897 8.08973C5.61919 8.19377 5.80903 8.38785 5.90774 8.6303C6.00645 8.87275 6.00615 9.14424 5.90691 9.38647C5.80767 9.62871 5.6174 9.82237 5.37696 9.92588L2.90696 10.9329L2.16196 15.9999H15.84L15.1 10.9939L11.706 9.95588C11.5493 9.90811 11.4068 9.8226 11.291 9.70688L9.54696 7.96288C8.58919 8.09538 7.61583 7.87647 6.80701 7.34665C5.99819 6.81684 5.40866 6.01199 5.1475 5.08103C4.88633 4.15007 4.97122 3.15602 5.38645 2.28282C5.80168 1.40962 6.51915 0.716387 7.40609 0.331385C8.29303 -0.0536157 9.28941 -0.104318 10.2109 0.18866C11.1323 0.481639 11.9164 1.09846 12.4182 1.925C12.9199 2.75154 13.1052 3.73183 12.9399 4.6845C12.7746 5.63716 12.2698 6.4977 11.519 7.10688H11.52ZM8.99996 5.99988C9.5304 5.99988 10.0391 5.78916 10.4142 5.41409C10.7892 5.03902 11 4.53031 11 3.99988C11 3.46944 10.7892 2.96074 10.4142 2.58566C10.0391 2.21059 9.5304 1.99988 8.99996 1.99988C8.46953 1.99988 7.96082 2.21059 7.58575 2.58566C7.21068 2.96074 6.99996 3.46944 6.99996 3.99988C6.99996 4.53031 7.21068 5.03902 7.58575 5.41409C7.96082 5.78916 8.46953 5.99988 8.99996 5.99988Z" fill="white"/>
</svg>
