<svg width="18" height="18" viewBox="0 0 18 18" fill="none" xmlns="http://www.w3.org/2000/svg">
<path d="M12.9382 11.743L11.5592 13.121C11.3719 13.3082 11.118 13.4134 10.8532 13.4134C10.5884 13.4134 10.3344 13.3082 10.1472 13.121C9.95992 12.9338 9.85472 12.6798 9.85472 12.415C9.85472 12.1502 9.95992 11.8962 10.1472 11.709L11.9042 9.953C12.0204 9.83672 12.1635 9.75095 12.3209 9.70333C12.4783 9.6557 12.645 9.64769 12.8062 9.68L17.1972 10.558C17.4238 10.6031 17.6277 10.7255 17.7741 10.9042C17.9206 11.083 18.0004 11.3069 18.0002 11.538V16.805C18.0002 17.0295 17.9245 17.2475 17.7853 17.4237C17.6461 17.5999 17.4516 17.724 17.2332 17.776C13.8462 18.582 9.01116 17.253 4.87816 13.121C0.744159 8.99 -0.581841 4.155 0.224159 0.767001C0.27617 0.548395 0.400433 0.35374 0.576835 0.214543C0.753236 0.0753451 0.971452 -0.000247474 1.19616 6.08681e-07H6.46616C6.94116 6.08681e-07 7.35116 0.336001 7.44516 0.803001L8.32316 5.193C8.3553 5.35405 8.3472 5.52054 8.29958 5.67771C8.25196 5.83488 8.16628 5.97787 8.05016 6.094L6.81716 7.326C7.39492 8.33503 8.13674 9.24076 9.01216 10.006C9.212 10.1797 9.33465 10.4257 9.35312 10.6899C9.37159 10.954 9.28438 11.2147 9.11066 11.4145C9.02464 11.5135 8.91998 11.5945 8.80264 11.653C8.68531 11.7115 8.5576 11.7463 8.42681 11.7555C8.16266 11.7739 7.902 11.6867 7.70216 11.513C7.48528 11.3245 7.27515 11.1284 7.07216 10.925C6.10311 9.94932 5.29957 8.82221 4.69316 7.588C4.60008 7.40078 4.56816 7.18905 4.60189 6.98271C4.63562 6.77637 4.73331 6.58584 4.88116 6.438L6.26016 5.06L5.64716 1.997H2.03616C1.74416 4.687 2.97816 8.4 6.28916 11.709C9.60116 15.019 13.3142 16.255 16.0032 15.964V12.356L12.9382 11.743Z" fill="#212121"/>
</svg>
